<svg width="375" height="339" viewBox="0 0 375 339" fill="none" xmlns="http://www.w3.org/2000/svg">
<path fill-rule="evenodd" clip-rule="evenodd" d="M118.861 71.4837C121.429 65.5503 124.439 59.6887 127.932 54.1487C140.8 33.7382 159.506 18.6207 186.396 18.6207C213.416 18.6207 231.153 32.7784 243.463 52.4687C247.202 58.4498 250.395 64.8823 253.129 71.4837H118.861ZM94.1068 89.2514C91.6283 98.5846 90.0948 107.317 89.3323 114.622C88.8272 119.461 92.349 123.793 97.1985 124.297C102.048 124.802 106.389 121.287 106.894 116.447C107.697 108.75 109.477 99.2631 112.441 89.2514H259.39C262.306 99.0165 264.415 108.607 265.998 117.139C266.886 121.923 271.492 125.084 276.287 124.198C281.081 123.312 284.248 118.715 283.36 113.93C281.987 106.534 280.191 98.0997 277.756 89.2514H339.088L355.581 320.232H19.4189L35.9121 89.2514H94.1068ZM99.815 71.4837C103.255 62.4365 107.6 53.311 112.987 44.7651C127.892 21.1239 151.489 1 186.396 1C221.175 1 243.901 19.8811 258.443 43.1412C264.042 52.0972 268.501 61.7936 272.078 71.4837H347.357C352.016 71.4837 355.884 75.0856 356.216 79.7346L373.977 328.483C374.153 330.943 373.299 333.365 371.619 335.17C369.939 336.975 367.584 338 365.119 338H9.88097C7.41568 338 5.06131 336.975 3.38133 335.17C1.70135 333.365 0.846946 330.943 1.02259 328.483L18.7845 79.7346C19.1165 75.0856 22.9836 71.4837 27.6429 71.4837H99.815Z" fill="white" stroke="white" stroke-width="2" stroke-linecap="round"/>
</svg>
