<?xml version="1.0" encoding="UTF-8"?><svg id="Capa_2" xmlns="http://www.w3.org/2000/svg" viewBox="0 0 35.38 35.52"><defs><style>.cls-1,.cls-2{fill:#fff;}.cls-2{opacity:0;}</style></defs><g id="ELEMENTS"><rect class="cls-2" y=".13" width="35.38" height="35.38"/><g><path class="cls-1" d="M27.06,6.32c-1.15,0-2.07,.93-2.07,2.07s.93,2.07,2.07,2.07,2.07-.93,2.07-2.07-.93-2.07-2.07-2.07Z"/><path class="cls-1" d="M17.84,8.98c-4.8,0-8.71,3.91-8.71,8.71s3.91,8.71,8.71,8.71,8.71-3.91,8.71-8.71-3.91-8.71-8.71-8.71Zm0,14.29c-3.08,0-5.58-2.5-5.58-5.58s2.5-5.58,5.58-5.58,5.58,2.5,5.58,5.58-2.5,5.58-5.58,5.58Z"/><path class="cls-1" d="M24.75,35.38H10.63c-5.86,0-10.63-4.77-10.63-10.63V10.63C0,4.77,4.77,0,10.63,0h14.13c5.86,0,10.63,4.77,10.63,10.63v14.13c0,5.86-4.77,10.63-10.63,10.63ZM10.63,3.33c-4.02,0-7.3,3.27-7.3,7.3v14.13c0,4.02,3.27,7.3,7.3,7.3h14.13c4.02,0,7.3-3.27,7.3-7.3V10.63c0-4.02-3.27-7.3-7.3-7.3H10.63Z"/></g></g></svg>