<?xml version="1.0" encoding="UTF-8"?><svg xmlns="http://www.w3.org/2000/svg" xmlns:xlink="http://www.w3.org/1999/xlink" viewBox="0 0 1026.36 322.93"><defs><style>.e{fill:url(#d);}.f{fill:none;}</style><linearGradient id="d" x1="736.66" y1="314.02" x2="1010.28" y2="1.92" gradientTransform="matrix(1, 0, 0, 1, 0, 0)" gradientUnits="userSpaceOnUse"><stop offset=".11" stop-color="#f4cb29"/><stop offset=".24" stop-color="#e94a31"/><stop offset=".27" stop-color="#e04748"/><stop offset=".32" stop-color="#d2446f"/><stop offset=".37" stop-color="#c94188"/><stop offset=".39" stop-color="#c64191"/><stop offset=".79" stop-color="#00a9bc"/><stop offset="1" stop-color="#03a85f"/></linearGradient></defs><g id="a"/><g id="b"><g id="c"><g><g><path class="f" d="M909.3,67.21h-61.19c-31.47,13.18-53.64,44.3-53.64,80.5,0,14.83,3.72,28.8,10.28,41.04l86.08-100.07,18.48-21.48Z"/><path class="f" d="M881.71,234.94c48.1,0,87.24-39.13,87.24-87.24,0-9.78-1.62-19.19-4.6-27.98l-97.95,113.87c4.97,.88,10.09,1.35,15.32,1.35Z"/><polygon class="f" points="975.74 256.99 975.74 256.99 975.74 256.99 975.74 256.99"/><path d="M975.74,256.99h0c-14.98,12.91-32.64,22.8-52.02,28.71-13.24,4.3-27.36,6.64-42.01,6.64s-28.85-2.34-42.12-6.67c-21.13-6.46-40.19-17.67-55.98-32.35-6.42-5.97-12.32-12.5-17.58-19.55l-28.97,33.68v53.28h289.3v-63.73h-50.62Z"/><path class="e" d="M1004.83,72.66l-8.5,9.88-28.44,33.06-3.55,4.13c2.98,8.79,4.6,18.2,4.6,27.98,0,48.1-39.13,87.24-87.24,87.24-5.23,0-10.34-.46-15.32-1.35-26.7-4.75-49.24-21.69-61.64-44.85-6.55-12.24-10.28-26.21-10.28-41.04,0-36.2,22.17-67.32,53.64-80.5h-86.03c-15.53,23.01-24.61,50.71-24.61,80.5,0,32.23,10.63,62.02,28.56,86.06,5.25,7.04,11.15,13.57,17.58,19.55,15.79,14.68,34.86,25.89,55.98,32.35,13.27,4.32,27.42,6.67,42.12,6.67s28.77-2.33,42.01-6.64c19.38-5.91,37.04-15.79,52.02-28.71h0c30.72-26.47,50.2-65.64,50.2-109.28,0-27.47-7.72-53.18-21.11-75.05Z"/><path d="M847.53,67.21h61.77l-18.48,21.48-86.08,100.07c12.4,23.15,34.93,40.1,61.64,44.85l97.95-113.87,3.55-4.13,28.44-33.06,8.5-9.88,13.68-15.9V3.47h-276.55v63.73h105.57Z"/></g><g><g><path d="M242.08,150.29c-11.49,0-22.11-1.87-31.86-5.6s-18.2-8.99-25.32-15.78c-7.13-6.78-12.66-14.74-16.61-23.87-3.94-9.13-5.92-19.1-5.92-29.89s1.97-20.76,5.92-29.89c3.94-9.13,9.51-17.09,16.71-23.87,7.19-6.78,15.64-12.04,25.33-15.78,9.68-3.74,20.2-5.6,31.55-5.6s22.04,1.87,31.66,5.6c9.62,3.74,17.99,9,25.12,15.78,7.13,6.78,12.7,14.71,16.71,23.77,4.01,9.07,6.02,19.06,6.02,30s-2.01,20.79-6.02,30c-4.02,9.2-9.58,17.16-16.71,23.87-7.13,6.71-15.5,11.94-25.12,15.67-9.62,3.74-20.1,5.6-31.45,5.6Zm-.21-28.65c6.5,0,12.49-1.11,17.96-3.32,5.47-2.21,10.28-5.4,14.43-9.55,4.15-4.15,7.37-9.06,9.65-14.74,2.28-5.67,3.42-11.97,3.42-18.89s-1.14-13.21-3.42-18.89c-2.28-5.67-5.47-10.59-9.55-14.74-4.08-4.15-8.89-7.33-14.43-9.55-5.54-2.21-11.56-3.32-18.06-3.32s-12.49,1.11-17.96,3.32c-5.47,2.22-10.28,5.4-14.43,9.55-4.15,4.15-7.37,9.07-9.65,14.74-2.28,5.68-3.43,11.97-3.43,18.89s1.14,13.05,3.43,18.79c2.28,5.74,5.47,10.69,9.55,14.84,4.08,4.15,8.89,7.34,14.43,9.55,5.53,2.22,11.55,3.32,18.06,3.32Z"/><path d="M0,147.55v-20.46L85.51,28.32H2.72V3.79h127.41V25.79L44.04,123.03h87.23v24.53H0Z"/><path d="M442.84,147.55l-50.05-85.8-10.3-18.48v104.28h-32.03V3.79h43.18l51.05,86.35,9.01,16.83V3.79h32.03V147.55h-42.9Z"/><path d="M634.51,147.55l-10.3-28.38h-65.21l-10.58,28.38h-34.89L568.88,3.79h49.19l55.34,143.76h-38.89Zm-42.47-117.37l-24.59,66.88h48.9l-24.31-66.88Z"/></g><g><path d="M593.51,322.93c-11.49,0-22.11-1.87-31.87-5.61-9.76-3.74-18.2-9-25.33-15.78-7.13-6.78-12.66-14.74-16.61-23.87-3.94-9.13-5.92-19.1-5.92-29.89s1.97-20.76,5.92-29.89c3.94-9.13,9.51-17.09,16.71-23.87,7.19-6.78,15.64-12.04,25.33-15.78,9.69-3.74,20.21-5.61,31.56-5.61s22.04,1.87,31.66,5.61c9.62,3.74,17.99,9,25.12,15.78,7.13,6.78,12.7,14.71,16.71,23.77,4.01,9.07,6.02,19.07,6.02,30s-2.01,20.8-6.02,30c-4.02,9.21-9.59,17.16-16.71,23.87-7.13,6.71-15.5,11.94-25.12,15.67-9.62,3.74-20.1,5.61-31.45,5.61Zm-.21-28.65c6.5,0,12.49-1.11,17.96-3.32,5.47-2.21,10.28-5.4,14.43-9.55,4.15-4.15,7.37-9.06,9.65-14.74,2.28-5.67,3.43-11.97,3.43-18.89s-1.14-13.21-3.43-18.89c-2.28-5.67-5.47-10.59-9.55-14.74-4.08-4.15-8.89-7.33-14.43-9.55-5.54-2.21-11.56-3.32-18.06-3.32s-12.49,1.11-17.96,3.32c-5.47,2.22-10.28,5.4-14.43,9.55-4.15,4.15-7.37,9.07-9.65,14.74-2.28,5.68-3.43,11.97-3.43,18.89s1.14,13.05,3.43,18.79c2.28,5.74,5.47,10.69,9.55,14.84,4.08,4.15,8.89,7.34,14.43,9.55,5.53,2.22,11.55,3.32,18.06,3.32Z"/><path d="M0,320.44v-20.46l85.52-98.79H2.72v-24.53h127.42v22l-86.09,97.25h87.23v24.53H0Z"/><path d="M187.41,320.44V176.66h112.55v22.88h-76.8v35.75h73.22v22.33h-73.22v39.93h76.8v22.88h-112.55Z"/><path d="M444.75,320.44l-26.31-46.2c-2.48-4.4-5.93-7.72-10.37-9.96-4.43-2.24-9.65-3.36-15.66-3.36h-6.72v59.51h-35.18V176.66h54.49c10.3,0,19.64,.68,28.03,2.03,8.39,1.36,15.54,3.61,21.45,6.77,5.91,3.15,10.46,7.26,13.66,12.32,3.19,5.06,4.79,11.26,4.79,18.59,0,5.28-1,9.97-3,14.08-2,4.11-4.82,7.65-8.44,10.62-3.62,2.97-7.94,5.37-12.94,7.21-5.01,1.83-10.46,3.12-16.37,3.85,4.58,.73,8.77,2.73,12.58,6,3.81,3.26,7.63,7.98,11.44,14.14l29.89,48.18h-41.33Zm-8.72-101.43c0-7.04-2.91-12.1-8.72-15.18-5.82-3.08-14.54-4.62-26.17-4.62h-15.44v40.59h14.3c5.43,0,10.37-.44,14.8-1.32,4.43-.88,8.22-2.2,11.37-3.96,3.15-1.76,5.58-3.94,7.29-6.55,1.72-2.6,2.57-5.59,2.57-8.97Z"/></g></g></g></g></g></svg>