<svg width="324" height="378" viewBox="0 0 324 378" fill="none" xmlns="http://www.w3.org/2000/svg">
<path fill-rule="evenodd" clip-rule="evenodd" d="M162 19.7999C125.387 19.7999 95.7062 49.2594 95.7062 85.5996C95.7062 121.94 125.387 151.399 162 151.399C198.613 151.399 228.293 121.94 228.293 85.5996C228.293 49.2594 198.613 19.7999 162 19.7999ZM76.7651 85.5996C76.7651 38.8765 114.926 1 162 1C209.073 1 247.234 38.8765 247.234 85.5996C247.234 132.323 209.073 170.199 162 170.199C114.926 170.199 76.7651 132.323 76.7651 85.5996ZM59.1528 280.533C35.422 310.914 22.8002 346.946 19.859 368.841C19.1678 373.987 14.4045 377.602 9.21994 376.916C4.03541 376.23 0.3929 371.502 1.08417 366.356C4.45665 341.251 18.3523 302.084 44.1838 269.014C70.1636 235.755 108.975 207.799 162 207.799C214.966 207.799 253.005 234.913 278.642 267.852C304.127 300.597 317.886 339.66 322.836 365.866C323.8 370.969 320.414 375.881 315.273 376.837C310.132 377.794 305.183 374.433 304.22 369.331C299.699 345.403 286.941 309.267 263.653 279.345C240.516 249.619 207.526 226.599 162 226.599C116.531 226.599 82.7353 250.343 59.1528 280.533Z" fill="white" stroke="white" stroke-width="2" stroke-linecap="round"/>
</svg>
