<?xml version="1.0" encoding="UTF-8"?><svg id="Capa_2" xmlns="http://www.w3.org/2000/svg" viewBox="0 0 35.38 35.38"><defs><style>.cls-1,.cls-2{fill:#fff;}.cls-2{opacity:0;}</style></defs><g id="ELEMENTS"><rect class="cls-2" width="35.38" height="35.38"/><path class="cls-1" d="M32.82,14.31c-.29,.03-.58,.04-.87,.04-3.19,0-6.16-1.61-7.9-4.27v14.54c0,5.94-4.81,10.75-10.75,10.75S2.55,30.57,2.55,24.63,7.36,13.88,13.3,13.88h0c.22,0,.44,.02,.66,.03v5.3c-.22-.03-.44-.07-.66-.07-3.03,0-5.49,2.46-5.49,5.49s2.46,5.49,5.49,5.49,5.71-2.39,5.71-5.42l.05-24.7h5.07c.48,4.54,4.14,8.09,8.7,8.43v5.89"/></g></svg>