<?xml version="1.0" encoding="UTF-8"?><svg id="Capa_2" xmlns="http://www.w3.org/2000/svg" viewBox="0 0 35.95 35.38"><defs><style>.cls-1,.cls-2{fill:#fff;}.cls-2{opacity:0;}</style></defs><g id="ELEMENTS"><rect class="cls-2" x=".29" width="35.38" height="35.38"/><path class="cls-1" d="M35.8,6.44c-1.14,.52-2.4,.83-3.64,1.04,.58-.1,1.44-1.16,1.79-1.59,.53-.65,.96-1.4,1.21-2.2,.03-.06,.06-.14,0-.19-.08-.03-.13-.02-.19,.02-1.37,.74-2.8,1.27-4.31,1.65-.12,.03-.22,0-.3-.08-.13-.14-.24-.28-.38-.39-.64-.54-1.32-.97-2.09-1.28-1.01-.41-2.11-.59-3.2-.52-1.06,.07-2.1,.37-3.04,.86-.94,.49-1.78,1.18-2.45,2-.69,.85-1.2,1.86-1.46,2.93-.25,1.03-.23,2.05-.08,3.09,.02,.17,0,.2-.15,.17-5.92-.88-10.83-3-14.81-7.54-.17-.2-.27-.2-.41,.01-1.74,2.61-.9,6.81,1.28,8.87,.29,.28,.59,.55,.91,.8-.12,.02-1.57-.13-2.86-.8-.17-.11-.26-.05-.28,.15-.02,.28,0,.54,.05,.85,.33,2.65,2.17,5.1,4.68,6.06,.3,.13,.63,.24,.95,.29-.57,.13-1.16,.22-2.8,.09-.2-.04-.28,.06-.2,.26,1.23,3.36,3.9,4.36,5.89,4.93,.27,.05,.53,.05,.8,.11-.02,.02-.03,.02-.05,.05-.66,1.01-2.95,1.76-4.02,2.13-1.94,.68-4.06,.98-6.11,.78-.33-.05-.4-.04-.49,0-.09,.06-.01,.13,.09,.22,.42,.28,.84,.52,1.27,.75,1.3,.69,2.66,1.24,4.08,1.63,7.34,2.03,15.61,.54,21.12-4.94,4.33-4.3,5.84-10.23,5.84-16.17,0-.23,.27-.36,.44-.48,1.13-.85,2.03-1.86,2.87-2.99,.19-.25,.19-.48,.19-.57v-.03c0-.1,0-.07-.15,0Z"/></g></svg>